HIERARCHY
ROOT Hips
{
	OFFSET	0.00	0.00	0.00
	CHANNELS 6 Xposition Yposition Zposition Zrotation Xrotation Yrotation
	JOINT LeftUpLeg
	{
		OFFSET	 0.126116	-0.014019	-0.065224
		CHANNELS 3 Zrotation Xrotation Yrotation
		JOINT LeftLeg
		{
			OFFSET	 0.000000	 0.000000	 0.569914
			CHANNELS 3 Zrotation Xrotation Yrotation
			JOINT LeftFoot
			{
				OFFSET	 0.000000	 0.000000	 0.544423
				CHANNELS 3 Zrotation Xrotation Yrotation
				JOINT LeftToeBase
				{
					OFFSET	 0.000000	 0.000000	 0.207117
					CHANNELS 3 Zrotation Xrotation Yrotation
					End Site
					{
						OFFSET	 0.000000	 0.000000	 0.207117
					}
				}
			}
		}
	}
	JOINT RightUpLeg
	{
		OFFSET	-0.124023	-0.008373	-0.065224
		CHANNELS 3 Zrotation Xrotation Yrotation
		JOINT RightLeg
		{
			OFFSET	 0.000000	 0.000000	 0.570047
			CHANNELS 3 Zrotation Xrotation Yrotation
			JOINT RightFoot
			{
				OFFSET	 0.000000	 0.000000	 0.544354
				CHANNELS 3 Zrotation Xrotation Yrotation
				JOINT RightToeBase
				{
					OFFSET	 0.000000	 0.000000	 0.207540
					CHANNELS 3 Zrotation Xrotation Yrotation
					End Site
					{
						OFFSET	 0.000000	 0.000000	 0.207540
					}
				}
			}
		}
	}
	JOINT Spine
	{
		OFFSET	 0.000184	-0.007763	 0.117403
		CHANNELS 3 Zrotation Xrotation Yrotation
		JOINT Spine1
		{
			OFFSET	 0.000000	 0.000000	 0.137269
			CHANNELS 3 Zrotation Xrotation Yrotation
			JOINT Spine2
			{
				OFFSET	 0.000000	 0.000000	 0.156879
				CHANNELS 3 Zrotation Xrotation Yrotation
				JOINT LeftShoulder
				{
					OFFSET	 0.080501	-0.002496	 0.160144
					CHANNELS 3 Zrotation Xrotation Yrotation
					JOINT LeftArm
					{
						OFFSET	 0.000000	 0.000000	 0.164363
						CHANNELS 3 Zrotation Xrotation Yrotation
						JOINT LeftForeArm
						{
							OFFSET	 0.000000	 0.000000	 0.364576
							CHANNELS 3 Zrotation Xrotation Yrotation
							JOINT LeftHand
							{
								OFFSET	 0.000000	 0.000000	 0.360812
								CHANNELS 3 Zrotation Xrotation Yrotation
								JOINT LeftHandIndex1
								{
									OFFSET	 0.000000	 0.000000	 0.086006
									CHANNELS 3 Zrotation Xrotation Yrotation
									JOINT LeftHandIndex2
									{
										OFFSET	 0.000000	 0.000000	 0.047236
										CHANNELS 3 Zrotation Xrotation Yrotation
										JOINT LeftHandIndex3
										{
											OFFSET	-0.004284	-0.000551	 0.038166
											CHANNELS 3 Zrotation Xrotation Yrotation
											End Site
											{
												OFFSET	-0.004284	-0.000551	 0.038166
											}
										}
									}
								}
							}
						}
					}
				}
				JOINT Neck
				{
					OFFSET	 0.000000	 0.000000	 0.176489
					CHANNELS 3 Zrotation Xrotation Yrotation
					JOINT Head
					{
						OFFSET	 0.000000	-0.001747	 0.077940
						CHANNELS 3 Zrotation Xrotation Yrotation
						End Site
						{
							OFFSET	 0.000000	-0.001747	 0.077940
						}
					}
				}
				JOINT RightShoulder
				{
					OFFSET	-0.080363	 0.000306	 0.159706
					CHANNELS 3 Zrotation Xrotation Yrotation
					JOINT RightArm
					{
						OFFSET	 0.000000	 0.000000	 0.164196
						CHANNELS 3 Zrotation Xrotation Yrotation
						JOINT RightForeArm
						{
							OFFSET	 0.000000	 0.000000	 0.365611
							CHANNELS 3 Zrotation Xrotation Yrotation
							JOINT RightHand
							{
								OFFSET	 0.000000	 0.000000	 0.360648
								CHANNELS 3 Zrotation Xrotation Yrotation
								JOINT RightHandIndex1
								{
									OFFSET	 0.000000	 0.000000	 0.069977
									CHANNELS 3 Zrotation Xrotation Yrotation
									JOINT RightHandIndex2
									{
										OFFSET	 0.000000	 0.000000	 0.052305
										CHANNELS 3 Zrotation Xrotation Yrotation
										JOINT RightHandIndex3
										{
											OFFSET	 0.009002	-0.000782	 0.042196
											CHANNELS 3 Zrotation Xrotation Yrotation
											End Site
											{
												OFFSET	 0.009002	-0.000782	 0.042196
											}
										}
									}
								}
							}
						}
					}
				}
			}
		}
	}
}
MOTION
Frames:    7
Frame Time: 0.03333334
 0.016085	 0.026260	 1.222580	-177.449700	 1.570881	-0.443484	 0.082533	-12.513440	 179.868400	-0.148456	-39.326690	-5.858222	-140.482200	 86.544530	 126.407400	-1.947741	 56.801890	-0.870597	-13.695900	-12.502780	-176.737200	 6.766696	-40.300570	 9.736078	-174.307400	 84.828730	-176.602300	 2.386237	 28.024890	-0.007850	-20.022990	 5.822451	 0.540753	 3.088215	 10.386060	 1.525153	-8.471940	-25.180330	-2.860590	-91.229140	 83.958370	 178.242400	 47.703870	 65.443260	-54.597050	-6.371329	 1.961462	-8.272518	 24.750370	 3.545917	-8.378057	-11.643170	 8.423554	-24.834990	-5.213937	-0.202400	 3.566957	-1.378229	 35.397820	-2.634230	-1.759611	 7.105431	 4.857057	-6.272729	-22.423640	-7.998405	 87.726930	 87.418820	-176.798900	-76.818660	 60.929760	 74.894230	 6.343141	 1.931866	 8.281374	-39.905740	 5.020042	 18.498830	-0.939063	 25.272300	-62.245900	 5.070519	-0.690904	-9.399550	-2.350882	 35.473990	 5.254307
 0.018434	 0.021784	 1.223839	-176.500600	 2.451692	-0.702417	-0.761239	-13.720250	 179.941500	 0.390335	-39.321460	-5.511163	-129.997900	 87.135640	 115.584700	-1.897132	 58.183040	-0.940226	-15.042280	-13.637050	-176.901000	 7.077595	-40.499130	 9.985099	-170.218200	 84.489180	 179.270700	 2.385472	 28.202480	-0.004024	-22.471930	 5.908475	 0.881286	 2.984312	 10.292280	 1.769792	-8.565483	-25.959050	-3.051503	-91.229220	 83.958310	 178.242500	 48.435130	 65.581570	-53.957860	-8.186209	 2.746752	-9.528788	 25.081210	 3.374538	-8.252072	-11.482140	 9.254525	-24.941320	-5.213937	-0.202400	 3.566957	-1.378229	 35.397820	-2.634230	-2.005950	 7.710689	 5.321783	-6.762014	-23.007400	-9.331826	 87.726840	 87.418890	-176.798800	-77.528660	 61.092820	 75.261880	 9.845842	 2.732741	 9.539625	-38.880890	 5.400949	 18.288150	-1.126504	 25.137560	-62.912600	 5.070519	-0.690904	-9.399550	-2.350882	 35.473990	 5.254307
 0.019173	 0.021302	 1.223979	-176.380100	 2.510358	-0.663906	-0.831691	-13.823350	 179.842200	 0.429362	-39.358380	-5.490384	-128.053700	 87.191330	 113.624100	-1.880856	 58.599330	-0.962214	-15.150180	-13.656490	-177.008700	 7.123585	-40.479620	 10.012290	-169.848100	 84.318970	 178.897000	 2.385768	 28.134000	-0.005505	-22.801390	 5.946911	 0.878391	 3.019389	 10.341090	 1.789236	-8.573994	-26.070430	-3.066717	-91.229260	 83.958270	 178.242600	 48.922950	 65.722920	-54.288950	-8.687873	 2.928363	-9.788048	 25.037760	 3.370175	-8.232784	-11.445720	 9.359186	-24.898720	-5.213937	-0.202400	 3.566957	-1.378229	 35.397820	-2.634230	-2.063709	 7.939201	 5.516593	-6.888596	-23.225810	-9.704095	 87.727010	 87.418820	-176.799000	-77.272740	 60.970560	 74.851750	 10.423060	 2.915141	 9.799088	-38.922870	 5.456341	 18.325190	-1.108154	 25.146300	-62.827760	 5.070519	-0.690904	-9.399550	-2.350882	 35.473990	 5.254307
 0.019863	 0.020870	 1.224115	-176.258900	 2.569052	-0.624542	-0.901208	-13.920930	 179.746000	 0.469311	-39.389610	-5.468319	-126.072200	 87.248500	 111.624500	-1.863981	 59.017890	-0.984812	-15.256450	-13.672680	-177.109600	 7.168369	-40.453580	 10.037340	-169.550900	 84.153060	 178.593400	 2.386064	 28.065150	-0.006986	-23.074080	 5.984610	 0.875653	 3.045157	 10.372730	 1.797917	-8.578765	-26.175340	-3.074918	-91.229230	 83.958310	 178.242600	 49.452520	 65.874480	-54.621370	-9.172852	 3.109246	-10.040330	 24.994350	 3.365593	-8.213372	-11.409170	 9.464467	-24.855910	-5.213937	-0.202400	 3.566957	-1.378229	 35.397820	-2.634230	-2.122590	 8.168588	 5.712861	-7.016981	-23.444380	-10.079190	 87.726820	 87.418960	-176.798800	-77.035010	 60.847940	 74.459630	 10.984070	 3.097248	 10.047450	-38.965480	 5.511864	 18.362210	-1.089718	 25.155140	-62.742480	 5.070519	-0.690904	-9.399550	-2.350882	 35.473990	 5.254307
 0.020386	 0.020194	 1.224248	-176.220600	 2.768477	-0.625556	-0.892658	-14.170740	 179.708800	 0.445701	-39.412210	-5.486114	-124.643100	 87.271640	 110.225500	-1.861904	 59.068160	-0.987578	-15.332180	-13.897700	-177.192900	 7.214479	-40.470230	 10.071860	-168.792700	 84.123760	 177.831700	 2.384823	 28.351320	-0.000815	-23.224090	 5.828934	 0.873380	 3.091053	 10.427240	 1.915479	-8.643138	-26.170210	-3.166731	-91.229240	 83.958340	 178.242600	 49.714400	 66.117660	-54.725280	-9.691982	 3.280474	-10.266760	 24.776350	 3.335301	-8.147951	-11.389140	 9.489241	-24.805510	-5.213937	-0.202400	 3.566957	-1.378229	 35.397820	-2.634230	-2.150345	 8.145909	 5.777184	-7.059772	-23.375350	-10.227210	 87.726750	 87.418890	-176.798700	-76.809920	 60.724950	 74.173490	 11.407410	 3.267714	 10.273410	-39.087410	 5.535740	 18.413770	-1.233005	 24.898950	-62.548930	 5.070519	-0.690904	-9.399550	-2.350882	 35.473990	 5.254307
 0.020815	 0.019488	 1.224393	-176.194500	 2.992655	-0.631583	-0.869948	-14.443400	 179.684600	 0.412971	-39.424930	-5.508662	-123.261100	 87.296580	 108.879300	-1.862158	 59.062280	-0.987243	-15.402560	-14.158320	-177.269000	 7.260300	-40.488560	 10.106570	-167.996000	 84.120930	 177.029400	 2.383268	 28.696990	 0.006679	-23.318620	 5.640152	 0.871599	 3.130753	 10.477780	 2.033658	-8.712715	-26.145380	-3.262732	-91.229160	 83.958340	 178.242500	 49.918950	 66.368700	-54.695940	-10.210180	 3.450938	-10.484000	 24.528570	 3.299135	-8.074060	-11.371370	 9.501949	-24.753100	-5.213937	-0.202400	 3.566957	-1.378229	 35.397820	-2.634230	-2.173610	 8.083859	 5.822009	-7.089505	-23.260740	-10.342180	 87.727070	 87.419040	-176.799000	-76.679940	 60.610010	 74.019770	 11.801590	 3.437108	 10.491590	-39.223790	 5.554659	 18.468400	-1.402399	 24.596640	-62.336910	 5.070519	-0.690904	-9.399550	-2.350882	 35.473990	 5.254307
 0.021138	 0.018869	 1.224530	-176.167600	 3.223096	-0.636055	-0.843107	-14.711880	 179.668100	 0.380589	-39.426280	-5.529657	-121.930100	 87.329880	 107.581100	-1.862409	 59.056170	-0.986904	-15.470570	-14.421900	-177.332300	 7.305651	-40.498440	 10.139260	-167.299300	 84.126100	 176.321500	 2.381610	 29.054130	 0.014458	-23.371730	 5.443482	 0.869744	 3.156333	 10.488850	 2.131815	-8.776449	-26.102570	-3.346312	-91.229230	 83.958270	 178.242500	 50.257070	 66.662810	-54.653180	-10.726800	 3.623916	-10.700290	 24.273550	 3.260260	-7.997370	-11.352990	 9.515129	-24.698940	-5.213937	-0.202400	 3.566957	-1.378229	 35.397820	-2.634230	-2.197592	 8.019733	 5.868280	-7.119954	-23.142250	-10.460780	 87.727080	 87.418890	-176.799000	-76.551670	 60.491890	 73.851060	 12.190160	 3.609152	 10.707090	-39.365010	 5.573647	 18.524810	-1.576036	 24.283170	-62.119420	 5.070519	-0.690904	-9.399550	-2.350882	 35.473990	 5.254307
